:FULLY-SPECIFIED
:FORCE-ALL-JOINTS-BE-3DOF
:DEGREES
170
root 6.25754 16.0289 -25.6678 2.65503 20.417 0.96017
lfemur -11.7698 12.4125 -5.95608
ltibia 24.3838 0 0
lfoot -10.8452 -3.01966 0
ltoes 46.107 0 0
rfemur -38.4812 -17.6178 1.69134
rtibia 76.865 0 0
rfoot 1.6295 -1.45071 0
rtoes 23.0316 0 0
lowerback 2.29174 -5.1002 -2.80333
upperback 0.633839 -6.87026 -2.93846
thorax -0.367158 -3.41878 -1.13406
lowerneck -11.6655 -3.78834 0.06349
upperneck 2.68108 -5.37935 4.89259
head 3.08072 -2.46495 1.25428
lclavicle 3.41893e-14 -8.61826e-15 0
lhumerus -47.1968 -40.268 108.073
lradius 51.7006 0 0
lwrist 16.1805 0 0
lhand 35.5739 26.3919 0
lfingers 7.12502 0 0
lthumb 58.6112 41.3605 0
rclavicle 3.41893e-14 -8.61826e-15 0
rhumerus -57.5673 8.39788 -76.738
rradius 108.411 0 0
rwrist -9.88862 0 0
rhand 29.462 -4.60605 0
rfingers 7.12502 0 0
rthumb 53.1821 -383.668 0
171
root 6.20522 16.0112 -25.6466 2.87201 19.8669 1.12824
lfemur -11.2439 11.2522 -5.32031
ltibia 23.6501 0 0
lfoot -11.0897 -4.26999 0
ltoes 46.5555 0 0
rfemur -37.2973 -17.1297 1.05713
rtibia 74.8185 0 0
rfoot 0.0963677 -1.51685 0
rtoes 24.5416 0 0
lowerback 1.95862 -4.94064 -2.71976
upperback 0.571705 -6.64439 -3.13998
thorax -0.276133 -3.30657 -1.41737
lowerneck -11.7206 -3.75725 0.18111
upperneck 2.74031 -5.35844 4.88759
head 3.10695 -2.45113 1.23219
lclavicle 2.96349e-14 -9.23385e-15 0
lhumerus -47.5802 -40.3488 108.346
lradius 51.8496 0 0
lwrist 16.4911 0 0
lhand 35.7438 26.8164 0
lfingers 7.12502 0 0
lthumb 58.7581 41.6434 0
rclavicle 2.96349e-14 -9.23385e-15 0
rhumerus -57.711 10.3358 -76.9557
rradius 109.165 0 0
rwrist -9.79819 0 0
rhand 29.1816 -4.72241 0
rfingers 7.12502 0 0
rthumb 52.9291 -383.945 0
172
root 6.1529 15.9936 -25.6255 3.089 19.3168 1.29631
lfemur -10.7179 10.0919 -4.68453
ltibia 22.9164 0 0
lfoot -11.3342 -5.52031 0
ltoes 47.0039 0 0
rfemur -36.1134 -16.6417 0.422928
rtibia 72.7719 0 0
rfoot -1.43677 -1.58299 0
rtoes 26.0515 0 0
lowerback 1.62549 -4.78107 -2.63618
upperback 0.509571 -6.41852 -3.34151
thorax -0.185107 -3.19436 -1.70067
lowerneck -11.7757 -3.72615 0.29873
upperneck 2.79954 -5.33752 4.88259
head 3.13318 -2.43731 1.2101
lclavicle 2.50805e-14 -9.84945e-15 0
lhumerus -47.9635 -40.4295 108.618
lradius 51.9985 0 0
lwrist 16.8016 0 0
lhand 35.9137 27.2409 0
lfingers 7.12502 0 0
lthumb 58.905 41.9263 0
rclavicle 2.50805e-14 -9.84945e-15 0
rhumerus -57.8547 12.2736 -77.1734
rradius 109.919 0 0
rwrist -9.70776 0 0
rhand 28.9011 -4.83878 0
rfingers 7.12502 0 0
rthumb 52.676 -384.221 0
173
root 6.10058 15.9759 -25.6043 3.30599 18.7667 1.46438
lfemur -10.192 8.93161 -4.04876
ltibia 22.1827 0 0
lfoot -11.5787 -6.77064 0
ltoes 47.4524 0 0
rfemur -34.9295 -16.1536 -0.211277
rtibia 70.7254 0 0
rfoot -2.9699 -1.64913 0
rtoes 27.5615 0 0
lowerback 1.29237 -4.62151 -2.55261
upperback 0.447437 -6.19265 -3.54304
thorax -0.0940823 -3.08215 -1.98398
lowerneck -11.8308 -3.69506 0.41635
upperneck 2.85877 -5.31661 4.87759
head 3.15941 -2.42349 1.188
lclavicle 2.05261e-14 -1.0465e-14 0
lhumerus -48.3469 -40.5103 108.891
lradius 52.1475 0 0
lwrist 17.1122 0 0
lhand 36.0836 27.6654 0
lfingers 7.12502 0 0
lthumb 59.0519 42.2092 0
rclavicle 2.05261e-14 -1.0465e-14 0
rhumerus -57.9984 14.2115 -77.3911
rradius 110.673 0 0
rwrist -9.61733 0 0
rhand 28.6207 -4.95514 0
rfingers 7.12502 0 0
rthumb 52.423 -384.498 0
174
root 6.04825 15.9582 -25.5832 3.52297 18.2167 1.63245
lfemur -9.66611 7.77133 -3.41299
ltibia 21.449 0 0
lfoot -11.8231 -8.02096 0
ltoes 47.9009 0 0
rfemur -33.7456 -15.6656 -0.845481
rtibia 68.6789 0 0
rfoot -4.50304 -1.71527 0
rtoes 29.0714 0 0
lowerback 0.959245 -4.46195 -2.46904
upperback 0.385304 -5.96679 -3.74456
thorax -0.0030571 -2.96994 -2.26728
lowerneck -11.886 -3.66397 0.53397
upperneck 2.91801 -5.2957 4.87259
head 3.18563 -2.40967 1.16591
lclavicle 1.59717e-14 -1.10806e-14 0
lhumerus -48.7303 -40.591 109.164
lradius 52.2965 0 0
lwrist 17.4227 0 0
lhand 36.2536 28.09 0
lfingers 7.12502 0 0
lthumb 59.1989 42.4921 0
rclavicle 1.59717e-14 -1.10806e-14 0
rhumerus -58.1421 16.1494 -77.6088
rradius 111.427 0 0
rwrist -9.52691 0 0
rhand 28.3402 -5.07151 0
rfingers 7.12502 0 0
rthumb 52.1699 -384.775 0
175
root 5.99593 15.9405 -25.562 3.73996 17.6666 1.80052
lfemur -9.14019 6.61105 -2.77721
ltibia 20.7152 0 0
lfoot -12.0676 -9.27129 0
ltoes 48.3494 0 0
rfemur -32.5617 -15.1775 -1.47969
rtibia 66.6324 0 0
rfoot -6.03617 -1.78141 0
rtoes 30.5814 0 0
lowerback 0.62612 -4.30239 -2.38547
upperback 0.32317 -5.74092 -3.94609
thorax 0.0879681 -2.85773 -2.55059
lowerneck -11.9411 -3.63288 0.65159
upperneck 2.97724 -5.27478 4.86759
head 3.21186 -2.39585 1.14382
lclavicle 1.14173e-14 -1.16962e-14 0
lhumerus -49.1137 -40.6718 109.437
lradius 52.4454 0 0
lwrist 17.7333 0 0
lhand 36.4235 28.5145 0
lfingers 7.12502 0 0
lthumb 59.3458 42.775 0
rclavicle 1.14173e-14 -1.16962e-14 0
rhumerus -58.2858 18.0873 -77.8265
rradius 112.181 0 0
rwrist -9.43648 0 0
rhand 28.0598 -5.18787 0
rfingers 7.12502 0 0
rthumb 51.9169 -385.052 0
176
root 5.94361 15.9229 -25.5409 3.95695 17.1165 1.96859
lfemur -8.61428 5.45077 -2.14144
ltibia 19.9815 0 0
lfoot -12.3121 -10.5216 0
ltoes 48.7979 0 0
rfemur -31.3779 -14.6895 -2.11389
rtibia 64.5859 0 0
rfoot -7.56931 -1.84755 0
rtoes 32.0913 0 0
lowerback 0.292996 -4.14282 -2.3019
upperback 0.261036 -5.51505 -4.14761
thorax 0.178993 -2.74552 -2.83389
lowerneck -11.9962 -3.60178 0.76921
upperneck 3.03647 -5.25387 4.8626
head 3.23809 -2.38202 1.12173
lclavicle 6.86284e-15 -1.23118e-14 0
lhumerus -49.4971 -40.7526 109.71
lradius 52.5944 0 0
lwrist 18.0438 0 0
lhand 36.5934 28.939 0
lfingers 7.12502 0 0
lthumb 59.4927 43.0579 0
rclavicle 6.86284e-15 -1.23118e-14 0
rhumerus -58.4296 20.0251 -78.0442
rradius 112.935 0 0
rwrist -9.34605 0 0
rhand 27.7793 -5.30424 0
rfingers 7.12502 0 0
rthumb 51.6639 -385.329 0
177
root 5.89129 15.9052 -25.5197 4.17393 16.5664 2.13666
lfemur -8.08836 4.29049 -1.50567
ltibia 19.2478 0 0
lfoot -12.5566 -11.7719 0
ltoes 49.2464 0 0
rfemur -30.194 -14.2014 -2.74809
rtibia 62.5394 0 0
rfoot -9.10245 -1.91369 0
rtoes 33.6013 0 0
lowerback -0.0401281 -3.98326 -2.21833
upperback 0.198903 -5.28918 -4.34914
thorax 0.270018 -2.63331 -3.1172
lowerneck -12.0513 -3.57069 0.88683
upperneck 3.0957 -5.23296 4.8576
head 3.26431 -2.3682 1.09963
lclavicle 2.30843e-15 -1.29274e-14 0
lhumerus -49.8805 -40.8333 109.983
lradius 52.7434 0 0
lwrist 18.3544 0 0
lhand 36.7633 29.3636 0
lfingers 7.12502 0 0
lthumb 59.6397 43.3408 0
rclavicle 2.30843e-15 -1.29274e-14 0
rhumerus -58.5733 21.963 -78.2619
rradius 113.689 0 0
rwrist -9.25562 0 0
rhand 27.4989 -5.42061 0
rfingers 7.12502 0 0
rthumb 51.4108 -385.606 0
178
root 5.83896 15.8875 -25.4986 4.39092 16.0164 2.30473
lfemur -7.56245 3.1302 -0.869896
ltibia 18.5141 0 0
lfoot -12.801 -13.0223 0
ltoes 49.6948 0 0
rfemur -29.0101 -13.7134 -3.3823
rtibia 60.4929 0 0
rfoot -10.6356 -1.97983 0
rtoes 35.1112 0 0
lowerback -0.373252 -3.8237 -2.13475
upperback 0.136769 -5.06332 -4.55066
thorax 0.361044 -2.5211 -3.4005
lowerneck -12.1065 -3.5396 1.00445
upperneck 3.15494 -5.21204 4.8526
head 3.29054 -2.35438 1.07754
lclavicle -2.24598e-15 -1.3543e-14 0
lhumerus -50.2639 -40.9141 110.256
lradius 52.8923 0 0
lwrist 18.6649 0 0
lhand 36.9333 29.7881 0
lfingers 7.12502 0 0
lthumb 59.7866 43.6237 0
rclavicle -2.24598e-15 -1.3543e-14 0
rhumerus -58.717 23.9009 -78.4796
rradius 114.443 0 0
rwrist -9.1652 0 0
rhand 27.2184 -5.53697 0
rfingers 7.12502 0 0
rthumb 51.1578 -385.883 0
179
root 5.78664 15.8698 -25.4774 4.60791 15.4663 2.4728
lfemur -7.03653 1.96992 -0.234123
ltibia 17.7804 0 0
lfoot -13.0455 -14.2726 0
ltoes 50.1433 0 0
rfemur -27.8262 -13.2253 -4.0165
rtibia 58.4464 0 0
rfoot -12.1687 -2.04597 0
rtoes 36.6212 0 0
lowerback -0.706376 -3.66414 -2.05118
upperback 0.0746354 -4.83745 -4.75219
thorax 0.452069 -2.40889 -3.68381
lowerneck -12.1616 -3.50851 1.12207
upperneck 3.21417 -5.19113 4.8476
head 3.31677 -2.34056 1.05545
lclavicle -6.8004e-15 -1.41586e-14 0
lhumerus -50.6473 -40.9948 110.529
lradius 53.0413 0 0
lwrist 18.9755 0 0
lhand 37.1032 30.2126 0
lfingers 7.12502 0 0
lthumb 59.9335 43.9066 0
rclavicle -6.8004e-15 -1.41586e-14 0
rhumerus -58.8607 25.8388 -78.6973
rradius 115.197 0 0
rwrist -9.07477 0 0
rhand 26.938 -5.65334 0
rfingers 7.12502 0 0
rthumb 50.9047 -386.16 0
180
root 5.73432 15.8521 -25.4563 4.82489 14.9162 2.64087
lfemur -6.51061 0.809641 0.40165
ltibia 17.0466 0 0
lfoot -13.29 -15.5229 0
ltoes 50.5918 0 0
rfemur -26.6423 -12.7373 -4.65071
rtibia 56.3999 0 0
rfoot -13.7019 -2.11211 0
rtoes 38.1311 0 0
lowerback -1.0395 -3.50458 -1.96761
upperback 0.0125017 -4.61158 -4.95371
thorax 0.543094 -2.29668 -3.96711
lowerneck -12.2167 -3.47742 1.23969
upperneck 3.2734 -5.17021 4.8426
head 3.34299 -2.32674 1.03336
lclavicle -1.13548e-14 -1.47742e-14 0
lhumerus -51.0307 -41.0756 110.802
lradius 53.1902 0 0
lwrist 19.286 0 0
lhand 37.2731 30.6372 0
lfingers 7.12502 0 0
lthumb 60.0805 44.1895 0
rclavicle -1.13548e-14 -1.47742e-14 0
rhumerus -59.0044 27.7767 -78.915
rradius 115.951 0 0
rwrist -8.98434 0 0
rhand 26.6575 -5.7697 0
rfingers 7.12502 0 0
rthumb 50.6517 -386.437 0
181
root 5.682 15.8345 -25.4351 5.04188 14.3661 2.80894
lfemur -5.9847 -0.35064 1.03742
ltibia 16.3129 0 0
lfoot -13.5345 -16.7732 0
ltoes 51.0403 0 0
rfemur -25.4584 -12.2492 -5.28491
rtibia 54.3534 0 0
rfoot -15.235 -2.17825 0
rtoes 39.6411 0 0
lowerback -1.37262 -3.34501 -1.88404
upperback -0.0496319 -4.38571 -5.15524
thorax 0.634119 -2.18447 -4.25042
lowerneck -12.2718 -3.44632 1.35731
upperneck 3.33263 -5.1493 4.8376
head 3.36922 -2.31292 1.01127
lclavicle -1.59092e-14 -1.53898e-14 0
lhumerus -51.4141 -41.1564 111.075
lradius 53.3392 0 0
lwrist 19.5966 0 0
lhand 37.443 31.0617 0
lfingers 7.12502 0 0
lthumb 60.2274 44.4724 0
rclavicle -1.59092e-14 -1.53898e-14 0
rhumerus -59.1481 29.7145 -79.1327
rradius 116.706 0 0
rwrist -8.89391 0 0
rhand 26.3771 -5.88607 0
rfingers 7.12502 0 0
rthumb 50.3987 -386.714 0
182
root 5.62967 15.8168 -25.414 5.25887 13.8161 2.97701
lfemur -5.45878 -1.51092 1.6732
ltibia 15.5792 0 0
lfoot -13.7789 -18.0236 0
ltoes 51.4888 0 0
rfemur -24.2745 -11.7612 -5.91912
rtibia 52.3069 0 0
rfoot -16.7681 -2.24439 0
rtoes 41.151 0 0
lowerback -1.70575 -3.18545 -1.80047
upperback -0.111766 -4.15985 -5.35676
thorax 0.725144 -2.07226 -4.53372
lowerneck -12.327 -3.41523 1.47493
upperneck 3.39187 -5.12839 4.8326
head 3.39545 -2.2991 0.989174
lclavicle -2.04636e-14 -1.60053e-14 0
lhumerus -51.7974 -41.2371 111.348
lradius 53.4882 0 0
lwrist 19.9071 0 0
lhand 37.613 31.4862 0
lfingers 7.12502 0 0
lthumb 60.3743 44.7553 0
rclavicle -2.04636e-14 -1.60053e-14 0
rhumerus -59.2918 31.6524 -79.3504
rradius 117.46 0 0
rwrist -8.80349 0 0
rhand 26.0966 -6.00243 0
rfingers 7.12502 0 0
rthumb 50.1456 -386.991 0
